<?xml version="1.0" encoding="UTF-8"?>
<!DOCTYPE svg PUBLIC "-//W3C//DTD SVG 1.1//EN" "http://www.w3.org/Graphics/SVG/1.1/DTD/svg11.dtd">
<!-- Creator: CorelDRAW 2019 (64-Bit Evaluation Version) -->
<svg xmlns="http://www.w3.org/2000/svg" xml:space="preserve" width="3.721in" height="3.96231in" version="1.1" style="shape-rendering:geometricPrecision; text-rendering:geometricPrecision; image-rendering:optimizeQuality; fill-rule:evenodd; clip-rule:evenodd"
viewBox="0 0 2029.13 2160.72"
 xmlns:xlink="http://www.w3.org/1999/xlink">
 <defs>
  <style type="text/css">
   <![CDATA[
    .str1 {stroke:#00AFEF;stroke-width:3.79;stroke-miterlimit:2.61313}
    .str0 {stroke:#FFF212;stroke-width:20.75;stroke-miterlimit:10}
    .fil0 {fill:none;fill-rule:nonzero}
    .fil3 {fill:#00AFEF}
    .fil5 {fill:#00AFEF}
    .fil6 {fill:#FFC801}
    .fil4 {fill:#373435;fill-rule:nonzero}
    .fil2 {fill:#00AFEF;fill-rule:nonzero}
    .fil1 {fill:#FFC801;fill-rule:nonzero}
   ]]>
  </style>
 </defs>
 <g id="Layer_x0020_1">
  <metadata id="CorelCorpID_0Corel-Layer"/>
  <path class="fil0 str0" d="M1087.97 1334.28l1.78 0m335.43 0.47c7.52,22.27 8.45,44.75 6.1,67.71 -3.83,37.51 -16.63,38.85 -49.89,45.54 -33.26,6.71 -46.05,20.1 -47.33,29.48 -1.28,9.38 -61.41,18.75 -63.96,24.12 -2.57,5.35 83.33,75.26 -18.61,198.08 -11.78,14.2 -31.29,33.68 -31.29,33.68 0,0 -48.63,49.59 -93.39,104.5 -44.77,54.92 -35.83,73.68 -88.28,73.68 -52.45,0 -93.39,34.83 -131.77,0 -38.38,-34.83 -52.46,-41.52 -51.17,-68.32 1.28,-26.8 -43.5,-50.91 -52.45,-75.03 -8.95,-24.1 -47.33,-103.16 -20.46,-104.48 26.86,-1.34 25.59,-32.15 7.66,-44.21 -17.9,-12.05 -25.58,5.35 -33.25,-16.08 -7.68,-21.43 -12.79,-41.53 -16.63,-62.97 -3.84,-21.43 -7.67,5.35 -24.31,-44.21 -16.63,-49.56 -28.15,-76.36 -24.31,-95.11 3.84,-18.76 30.71,-46.9 52.46,-58.95 21.74,-12.06 56.29,-40.19 33.26,-58.94 -23.03,-18.77 -42.22,0 -43.51,-24.12 -1.28,-24.11 1.29,-72.34 -19.19,-97.8 -20.46,-25.46 -33.26,-1.34 -57.57,-41.52 -24.31,-40.2 -44.36,-91.55 -20.47,-116.57 23.88,-25 16.7,-5.03 23.53,-46.11 6.81,-41.09 -3.62,-51.77 4.92,-66.05 8.52,-14.3 -37.98,-39.67 -39.18,-20.02 -1.21,19.65 -38.74,42.87 -60.92,41.08 -22.17,-1.78 -22.17,-37.51 -40.93,-48.23 -18.76,-10.72 -37.53,-32.15 -61.41,-1.79 -23.88,30.37 -37.53,39.3 -69.93,39.3 -32.41,0 -54.58,-14.29 -78.47,-10.72 -23.87,3.57 -62.26,-0.9 -63.96,32.16 -1.7,33.04 -37.53,33.04 -57.14,-8.04 -19.62,-41.09 -29,-23.22 -51.17,-41.98 -22.18,-18.77 -27.29,-76.6 -42.01,-98.7 -14.72,-22.11 -58.2,-45.55 -78.04,-59.61 -19.83,-14.08 -10.86,-116.78 0,-124.82 10.87,-8.04 44.99,-20.54 36.47,-48.23 -8.53,-27.68 -27.3,-58.06 -35.83,-60.72 -8.52,-2.69 2.57,-67.89 20.46,-75.92 17.92,-8.05 42.65,-19.66 42.65,-42.87 0,-23.22 -19.62,-104.95 4.69,-100.93 24.32,4.02 78.04,-4.02 88.27,-21.43 10.24,-17.42 58.86,-132.63 134.33,-131.3 75.48,1.34 53.73,34.81 80.61,-0.01 26.86,-34.82 61.41,-44.2 92.11,-56.25 30.7,-12.07 30.7,-44.21 56.28,-41.53 25.59,2.69 24.31,26.8 39.66,42.87 15.35,16.08 47.34,-6.7 74.2,2.68 26.86,9.38 46.06,30.82 47.34,45.56 1.28,14.73 -26.88,17.41 -28.15,24.11 -1.27,6.7 -8.96,20.11 14.08,30.82 23.03,10.72 128.33,60.28 159.48,68.32 31.13,8.04 36.26,0 79.76,-36.17 43.5,-36.17 53.73,-32.15 71.64,-10.72 17.91,21.44 133.22,-1.55 117.7,16.07 0,0 -41.79,46.46 -58.01,70.56 -16.19,24.11 20.48,19.65 47.77,-19.65 27.29,-39.3 50.32,-40.19 50.32,-40.19l43.5 3.57c0,0 49.46,78.15 72.49,158.53 23.02,80.38 99.79,199.61 124.1,215.69 24.3,16.08 29.42,46.89 30.69,58.94 1.28,12.06 43.49,36.17 43.49,45.56 0,9.38 0,65.64 0,65.64 0,0 140.74,-12.05 185.51,-45.55 44.76,-33.49 33.25,37.5 0,80.37 -33.26,42.87 -67.81,104.5 -61.42,131.3 6.4,26.79 -19.19,24.11 -40.94,29.48 -12.35,3.04 -46.71,34.63 -78.84,78.53"/>
  <path class="fil1" d="M1032.35 1172.26l15.32 0 0 2.37c0,15.32 1.64,25.14 4.89,29.4 3.28,4.26 9.99,6.39 20.21,6.39l11 0c10.28,0 17.03,-2.13 20.3,-6.36 3.25,-4.23 4.89,-14.04 4.89,-29.43l0 -98.18 15.32 0 0 103.05c0,16.61 -2.99,28.49 -9.01,35.62 -6.02,7.14 -16.08,10.72 -30.2,10.72l-13.59 0c-14.56,0 -24.75,-3.69 -30.49,-11.06 -5.77,-7.38 -8.64,-20.57 -8.64,-39.55l0 -2.98zm185.73 25.17l0 -10.99c0,-4.97 -2.36,-8.59 -7.06,-10.89 -4.7,-2.34 -12.21,-3.49 -22.48,-3.49 -9.39,0 -15.7,1.29 -18.85,3.82 -3.18,2.54 -4.76,7.41 -4.76,14.62 0,8.22 1.67,13.67 5.05,16.41 3.34,2.74 10.05,4.12 20.14,4.12 9.05,0 15.96,-1.18 20.78,-3.52 4.79,-2.33 7.19,-5.72 7.19,-10.08zm0.73 15.6c-2.2,4.37 -5.74,7.51 -10.56,9.47 -4.85,1.96 -11.54,2.94 -20.11,2.94 -15.2,0 -25.42,-2.34 -30.59,-7.01 -5.17,-4.67 -7.75,-13.33 -7.75,-26.05 0,-7.34 0.6,-13.09 1.8,-17.25 1.2,-4.16 3.19,-7.51 5.96,-10.01 2.33,-2.13 5.77,-3.62 10.31,-4.5 4.54,-0.91 11.04,-1.35 19.55,-1.35 8.79,0 15.54,0.78 20.17,2.34 4.67,1.55 8.17,4.12 10.5,7.78l0 -18c0,-8.52 -1.54,-14.04 -4.6,-16.57 -3.09,-2.5 -10.81,-3.75 -23.17,-3.75 -8.98,0 -14.97,1.02 -17.94,3.04 -2.93,2 -4.47,5.78 -4.6,11.37l-14.38 0 0 -2.4c0,-8.93 2.68,-15.29 8.07,-19.08 5.39,-3.82 14.69,-5.72 27.87,-5.72 10.28,0 18.1,0.47 23.46,1.39 5.36,0.91 9.33,2.4 11.92,4.46 2.84,2.37 4.82,5.31 5.99,8.83 1.17,3.48 1.77,9.51 1.77,18.03l0 73.04 -13.08 0 -0.57 -11zm42.6 11l0 -104.33 13.81 0 0 14.28c2.37,-5.38 6.12,-9.34 11.29,-11.87 5.17,-2.54 11.98,-3.82 20.49,-3.82 12.74,0 21.66,2.77 26.77,8.29 5.11,5.52 7.66,15.22 7.66,29.1l0 68.37 -14.38 0 0 -65.09c0,-10.89 -1.48,-18.06 -4.48,-21.51 -3,-3.42 -8.79,-5.14 -17.4,-5.14 -10.18,0 -17.59,2.5 -22.32,7.48 -4.7,5 -7.06,12.85 -7.06,23.65l0 60.62 -14.38 0zm108.99 -130.11l0 -17.46 14.38 0 0 17.46 -14.38 0zm0 130.11l0 -104.33 14.38 0 0 104.33 -14.38 0z"/>
  <path class="fil2" d="M1411.98 1125.2c0,-18.91 3.37,-32.07 10.12,-39.48 6.75,-7.41 18.63,-11.1 35.72,-11.1l16.08 0c16.93,0 28.82,3.18 35.66,9.57 6.84,6.39 10.25,17.22 10.25,32.51l0 6.43 -15.7 0 0 -4.06c0,-11.16 -2.11,-18.77 -6.37,-22.87 -4.26,-4.09 -12.58,-6.16 -24.97,-6.16l-10.63 0c-8.29,0 -14.35,0.54 -18.16,1.63 -3.78,1.12 -6.94,2.94 -9.46,5.51 -2.52,2.5 -4.29,5.79 -5.32,9.84 -1.02,4.06 -1.52,11.47 -1.52,22.23l0 42.02c0,10.69 0.5,18.07 1.52,22.16 1.04,4.06 2.8,7.34 5.32,9.84 2.52,2.57 5.58,4.4 9.21,5.52 3.59,1.08 9.74,1.63 18.41,1.63l10.63 0c12.71,0 21.16,-2.13 25.35,-6.43 4.17,-4.29 6.27,-12.55 6.27,-24.69 0,-1.86 -0.03,-3.28 -0.06,-4.27 -0.03,-0.98 -0.06,-1.93 -0.13,-2.77l15.61 0 0 9.71c0,16.41 -3.31,27.84 -9.93,34.23 -6.62,6.43 -18.63,9.64 -35.97,9.64l-16.08 0c-17.09,0 -28.97,-3.72 -35.72,-11.13 -6.75,-7.41 -10.12,-20.57 -10.12,-39.48l0 -50.04zm142.85 36.5l55.05 0 0 -4.06c0,-9.78 -1.64,-16.41 -4.89,-19.93 -3.28,-3.48 -9.74,-5.24 -19.39,-5.24l-6.74 0c-9.62,0 -16.02,1.76 -19.24,5.24 -3.18,3.52 -4.79,10.15 -4.79,19.93l0 4.06zm24.21 63.74c-14.54,0 -24.68,-3.05 -30.49,-9.14 -5.77,-6.06 -8.67,-16.75 -8.67,-32.04l0 -24.73c0,-15.36 2.87,-26.05 8.64,-32.14 5.74,-6.09 15.86,-9.13 30.33,-9.13l6.74 0c14.54,0 24.72,3.04 30.52,9.13 5.8,6.09 8.7,16.78 8.7,32.14l0 15.76 -69.99 0.11c-0.06,1.05 -0.1,2.23 -0.12,3.48 -0.03,1.29 -0.06,3.08 -0.06,5.38 0,10.79 1.61,18 4.82,21.65 3.19,3.69 9.65,5.52 19.39,5.52l6.74 0c8.67,0 14.69,-1.35 18.1,-4.03 3.38,-2.67 5.36,-7.34 5.9,-14.04l15.04 0c-0.73,11.33 -4.13,19.49 -10.19,24.53 -6.05,5.04 -15.61,7.54 -28.69,7.54l-6.72 0zm71.69 -1.42l0 -104.33 13.81 0 0 14.28c2.36,-5.38 6.11,-9.34 11.29,-11.87 5.17,-2.54 11.98,-3.82 20.49,-3.82 12.73,0 21.66,2.77 26.77,8.29 5.11,5.52 7.66,15.22 7.66,29.1l0 68.37 -14.38 0 0 -65.09c0,-10.89 -1.48,-18.06 -4.48,-21.51 -2.99,-3.42 -8.79,-5.14 -17.4,-5.14 -10.18,0 -17.59,2.5 -22.32,7.48 -4.7,5 -7.06,12.85 -7.06,23.65l0 60.62 -14.38 0zm99.34 -91.14l0 -13.19 11.92 0 0 -23.55 14.38 0 0 23.55 47.67 0 0 13.19 -47.67 0 0 57.44c0,8.19 1.26,13.77 3.75,16.71 2.49,2.94 7.25,4.4 14.25,4.4 6.97,0 11.67,-1.42 14.09,-4.26 2.43,-2.84 3.65,-8.46 3.65,-16.85l0 -3.04 14.6 0 0 0.88c0,14.68 -2.27,24.56 -6.78,29.64 -4.54,5.11 -13.93,7.65 -28.21,7.65 -11.13,0 -18.89,-2.71 -23.24,-8.09 -4.32,-5.38 -6.49,-15.12 -6.49,-29.2l0 -55.28 -11.92 0zm113.91 28.82l55.05 0 0 -4.06c0,-9.78 -1.64,-16.41 -4.89,-19.93 -3.28,-3.48 -9.74,-5.24 -19.39,-5.24l-6.75 0c-9.62,0 -16.02,1.76 -19.23,5.24 -3.18,3.52 -4.79,10.15 -4.79,19.93l0 4.06zm24.21 63.74c-14.53,0 -24.69,-3.05 -30.49,-9.14 -5.77,-6.06 -8.67,-16.75 -8.67,-32.04l0 -24.73c0,-15.36 2.87,-26.05 8.64,-32.14 5.74,-6.09 15.86,-9.13 30.33,-9.13l6.75 0c14.53,0 24.72,3.04 30.52,9.13 5.8,6.09 8.7,16.78 8.7,32.14l0 15.76 -69.99 0.11c-0.06,1.05 -0.1,2.23 -0.13,3.48 -0.03,1.29 -0.06,3.08 -0.06,5.38 0,10.79 1.61,18 4.83,21.65 3.19,3.69 9.65,5.52 19.39,5.52l6.75 0c8.67,0 14.7,-1.35 18.1,-4.03 3.37,-2.67 5.36,-7.34 5.9,-14.04l15.04 0c-0.73,11.33 -4.13,19.49 -10.18,24.53 -6.05,5.04 -15.61,7.54 -28.69,7.54l-6.72 0zm71.5 -1.42l0 -104.33 14 0 0 14.28c2.05,-5.45 5.2,-9.41 9.52,-11.91 4.32,-2.54 10.03,-3.79 17.18,-3.79 10.6,0 18.03,2.74 22.29,8.22 4.29,5.52 6.43,15.23 6.43,29.16l0 0.81 -14.57 0 0 -3.08c0,-8.32 -1.23,-13.94 -3.69,-16.81 -2.46,-2.88 -7.1,-4.29 -13.94,-4.29 -7.98,0 -13.74,2.43 -17.31,7.27 -3.56,4.87 -5.36,12.82 -5.36,23.85l0 60.62 -14.57 0z"/>
  <path class="fil1" d="M1526.39 1343.65l58.67 0 -27.04 -65 -4.81 0 -26.82 65zm-33.12 42.8l50.04 -120.6 24.65 0 50.29 120.6 -15.46 0 -12.91 -30.86 -68.51 0 -12.64 30.86 -15.46 0zm131.1 -74.49l0 -10.78 13.41 0c0,-0.64 0,-1.38 -0.03,-2.24 -0.03,-0.83 -0.06,-1.99 -0.06,-3.51 0,-10.87 2.14,-18.5 6.4,-22.95 4.28,-4.43 11.67,-6.64 22.23,-6.64 2.73,0 5.4,0.06 7.98,0.17 2.61,0.11 5.21,0.27 7.82,0.47l0 11.47c-0.78,-0.05 -1.87,-0.11 -3.26,-0.16 -4.19,-0.11 -7.08,-0.17 -8.66,-0.17 -7.32,0 -12.19,1 -14.62,2.96 -2.42,1.99 -3.63,6.91 -3.63,14.82l0 5.78 30.18 0 0 10.78 -30.18 0 0 74.49 -14.15 0 0 -74.49 -13.41 0zm72.83 74.49l0 -85.27 13.79 0 0 11.67c2.02,-4.45 5.12,-7.69 9.37,-9.73 4.26,-2.08 9.87,-3.1 16.92,-3.1 10.43,0 17.76,2.24 21.95,6.72 4.22,4.5 6.33,12.44 6.33,23.83l0 0.67 -14.34 0 0 -2.52c0,-6.8 -1.21,-11.39 -3.64,-13.74 -2.42,-2.35 -6.98,-3.51 -13.72,-3.51 -7.85,0 -13.53,1.99 -17.04,5.94 -3.51,3.98 -5.28,10.48 -5.28,19.49l0 49.54 -14.35 0zm87.33 -106.33l0 -14.27 14.15 0 0 14.27 -14.15 0zm0 106.33l0 -85.27 14.15 0 0 85.27 -14.15 0zm78.2 1.16c-14.32,0 -24.31,-2.49 -30.02,-7.46 -5.68,-4.98 -8.53,-13.68 -8.53,-26.18l0 -20.21c0,-12.53 2.82,-21.29 8.5,-26.27 5.65,-4.98 15.61,-7.46 29.87,-7.46l6.64 0c13.53,0 23.28,2.32 29.27,6.94 5.99,4.61 9.09,12.19 9.34,22.75l-14.72 0.08c-0.31,-6.91 -2.05,-11.67 -5.27,-14.27 -3.2,-2.6 -9.44,-3.9 -18.63,-3.9l-6.64 0c-9.78,0 -16.15,1.46 -19.15,4.36 -3.01,2.93 -4.5,9.79 -4.5,20.57l0 14.57c0,10.84 1.53,17.72 4.53,20.65 3.04,2.9 9.41,4.37 19.12,4.37l6.64 0c9.32,0 15.64,-1.41 18.93,-4.26 3.32,-2.82 4.97,-8.02 4.97,-15.51l0 -1.47 14.72 0 0 1.63c0,11.12 -2.95,19.08 -8.88,23.86 -5.93,4.78 -15.77,7.19 -29.58,7.19l-6.61 0zm133.18 -22.89l0 -8.98c0,-4.06 -2.33,-7.02 -6.96,-8.9 -4.62,-1.91 -12.02,-2.85 -22.14,-2.85 -9.25,0 -15.46,1.05 -18.56,3.13 -3.14,2.07 -4.69,6.05 -4.69,11.95 0,6.72 1.65,11.17 4.97,13.41 3.29,2.24 9.91,3.37 19.84,3.37 8.91,0 15.71,-0.97 20.46,-2.87 4.72,-1.91 7.08,-4.67 7.08,-8.24zm0.71 12.75c-2.17,3.56 -5.65,6.14 -10.4,7.74 -4.78,1.6 -11.36,2.4 -19.81,2.4 -14.96,0 -25.02,-1.91 -30.11,-5.72 -5.09,-3.82 -7.64,-10.9 -7.64,-21.29 0,-6 0.59,-10.7 1.77,-14.1 1.18,-3.4 3.14,-6.14 5.87,-8.18 2.3,-1.74 5.68,-2.96 10.15,-3.68 4.47,-0.74 10.86,-1.1 19.25,-1.1 8.66,0 15.3,0.64 19.87,1.91 4.59,1.27 8.04,3.37 10.34,6.36l0 -14.71c0,-6.97 -1.52,-11.47 -4.53,-13.54 -3.04,-2.05 -10.65,-3.07 -22.82,-3.07 -8.85,0 -14.75,0.83 -17.66,2.49 -2.89,1.63 -4.41,4.73 -4.53,9.29l-14.16 0 0 -1.96c0,-7.3 2.64,-12.5 7.95,-15.59 5.31,-3.13 14.46,-4.67 27.44,-4.67 10.12,0 17.82,0.39 23.09,1.13 5.28,0.75 9.19,1.97 11.74,3.65 2.79,1.94 4.75,4.34 5.9,7.22 1.15,2.85 1.74,7.77 1.74,14.73l0 59.69 -12.88 0 -0.56 -8.98z"/>
  <path class="fil3" d="M1653.66 179.73c3.75,2.95 6.17,5.3 10.25,4.92 0.85,-4.19 0.68,-5 -2.16,-9.6l-8.09 4.68zm-32.38 -18.27c-7.01,-3.25 -17.78,-10.57 -21.29,-7.36 0.84,4.01 18.76,10.14 21.89,11.49 5.07,2.18 17.4,8.79 21.95,5.3l-22.56 -9.43zm25.41 30.25c1.63,4.55 4.63,9.56 8.55,13.13l-2.48 -6.98c2.59,2.83 2.4,3.01 4.41,3.63 -1.89,-5.2 -7.43,-12.37 -11.17,-16.82 -0.13,3.07 1.14,4.84 3.18,7.24l-1.88 -0.33c-2.2,-0.25 0.17,-1.04 -0.61,0.14zm-53.48 -22.36c3.75,4.44 8.38,4.63 12.84,5.31 5.32,0.8 36.97,6.48 36.34,0.94 -0.32,-2.81 -9.43,-1.35 -11.42,-1.42 -4.37,-0.15 -8.18,-0.17 -12.6,-0.68 -4.55,-0.52 -8.5,-1.04 -12.72,-1.97 -3.24,-0.71 -9.84,-3.61 -12.44,-2.18zm-4.12 51.71c0.39,-0.04 0.16,-0.2 1.68,0.24 0.22,0.07 0.91,0.34 1.15,0.44l6.7 3.85c1.82,-1.12 1.45,-1.26 3.49,-4.55 -0.01,2.53 -0.9,4.03 -1.93,6.15l8.28 5.17 3.09 -5.37c-0.02,0.72 -0.11,1.54 -0.22,2.25 -0.17,1.05 -0.55,2.16 -0.79,3.01 2.71,1.61 7.67,2.89 10.8,3.99 0.89,-3.11 0.05,-3.55 1.69,-7.03 0.73,2.6 0.36,3.8 0.1,6.43 11.08,1.47 14.52,-2.08 25.48,-12.56 -14.49,-14.04 -7.5,-31.28 -9.04,-40.56 -0.31,-1.86 0.06,-0.86 -0.83,-2.42 -2.57,0.74 -2.44,0.32 -3.34,3.76 -1.22,4.65 -1.84,12.98 -1.93,17.39 -0.25,11.9 2.5,15.44 3.44,19.67 0.44,1.96 0.34,1.19 0.29,3.1 -5.15,-6.61 -5.7,-15.18 -5.6,-21.84 0.1,-6.82 0.73,-15.27 2.3,-21.58 -2.32,-0.72 -5.4,-0.68 -8.17,-0.88 -2.04,5.48 -0.61,25.33 -2.78,32.47l-1.01 -5.2c-0.67,-9.9 0.47,-17.77 1.74,-27.43 -3.18,-0.55 -6.77,-0.99 -10.08,-1.91 -3.4,6.33 -15.26,32.98 -18.28,35.03 0.71,-5.13 12.19,-28.21 15.48,-34.94l-6.52 -1.45 -2.94 5.26c0.07,-3.56 1.35,-2.05 0.81,-5.55 -3.43,-0.82 -1.13,-0.9 -4.7,-0.42 -2.63,0.35 -1.7,-1.18 -2.87,-1.25 -4.56,6.38 -9.91,17.33 -13.25,24.48 -1.27,2.71 -4.38,9.35 -4.55,11.87 -0.24,3.5 3.71,8.08 7.02,8.96l7.24 -10.22 -3.89 9.28 1.96 2.34zm7.27 44.54c0.5,2.33 -0.53,5.14 -1.12,7.44 -9.27,36.3 -22.14,80.94 -36.98,113.4 -11.46,25.07 -36.85,71.46 -52.43,94.29 -3.86,5.65 -17.47,24.21 -19.61,28.98l7.33 7.23 11.72 -16.41 -10.82 11.82 12.37 -16.93c1.63,0.65 0.86,2.22 0.89,2.27 14.21,-17.45 32,-47.54 42.42,-68.67 7.86,-15.95 24.6,-51.59 28.7,-68.25l-5.54 9.23c0.44,-1.29 1.11,-2.77 1.62,-4.1 6.08,-15.97 16.65,-53.75 20.54,-61.74 1.26,2.33 0.23,3.11 -1.27,9.04 -0.75,2.96 -1.43,7.31 -2.37,8.5 1.86,-3.84 5.38,-16.43 6.71,-21.89l-0.1 -6.6c-0.01,-0.44 0.35,-2.26 0.51,-2.59 3.36,-7.17 0.07,2.01 2.91,-3.27 1.57,-2.9 11.43,-41.52 11.65,-49.08l-8.1 -4.82c-3.3,8.58 -4.59,25.77 -9.03,32.17zm0 0c-0.19,-0.9 -0.36,-0.34 -0.1,-2.67l6.96 -30.97c-3.59,-3.16 -12.19,-8.76 -14.14,-10.9 -1.1,0.41 0.01,0.21 -2.19,0.29l-5.54 -0.56c-12.92,-6.01 -5.69,-16.38 0.55,-29.42 4.09,-8.55 8.26,-14.48 9.68,-17.37 1.42,-2.9 0.64,-1.03 0.77,-2.6l-0.18 -2.05c-0.13,0.08 -0.1,-0.47 -0.13,-0.73l3.54 -2.67 -2.88 -4.42c3.04,-2.44 3.3,-1.68 6.15,-2.78 -1.85,-7.73 0.85,-4.78 0.29,-9.32l-6.56 -25.9c3.05,7.89 5.47,19.73 9.58,26.19 -0.26,-1.59 -1.13,-4.67 -1.84,-6.99l-1.51 -7.66c5.34,9.43 3.28,15.47 14.78,20.45 0.75,-3.36 0.9,-9.78 1.2,-13.97l2.63 -43.57c0.93,-27.17 -3.08,-38.44 -3.73,-56.62 2.64,2.85 5.68,23.3 5.71,28.22 0.03,5.15 0.51,8.54 0.69,14.26 0.53,17.21 -2.17,54.89 -3.84,72.83l4.5 2.51c2.39,-8.44 2.54,-25.26 5.23,-32.58l0.43 5.3c-1.29,23.76 -6.37,29.58 5.87,30.88 4.44,-4.83 9.93,-27.59 10.98,-34.46 0.96,-6.28 2.37,-28.43 5.84,-32.63 1.82,2.81 0.83,4.24 0.12,8.16l-4.39 25.6c-0.92,5.27 -2.2,12 -3.83,17.03 -1.75,5.4 -5.36,12.37 -6.35,17.36 2.1,1.1 3.01,1 4.51,1.12 6.7,-7.87 7.83,-12.22 12.52,-20.72 -0.51,4.85 -9.01,17.97 -11.46,21.91 4.01,2.98 4.55,1.41 11.54,-7.91 9.97,-13.3 17.21,-32.37 21.69,-48.68 4.94,-17.97 9.69,-53.82 27.91,-58.42 -2.33,-0.6 -3.67,0.18 -5.27,-0.3 -3.95,-1.17 -0.63,-0.04 -2.3,-4.13 -3.25,0.09 -11.72,-1.2 -14.8,-2.51l1.21 -2.79c-6.44,-2.96 -10.51,1.57 -15.74,8.01 -1.62,-6.19 1.66,-7.93 2.15,-13.5 -6.46,3.11 -6.93,9.78 -8.41,16.8 -0.8,3.8 -2.35,16.45 -4.8,17.6 -1.53,-2.77 -0.27,-2.48 0.69,-7.2 0.54,-2.64 0.68,-4.77 0.76,-7.31 0.16,-4.68 0.28,-10.08 2.72,-14.9 0.27,1.13 0.18,0.06 0.25,2.02 0.03,0.91 0,0.86 -0.08,2.03 -0.1,1.46 -0.23,2.47 -0.33,3.57 2.77,-7.51 4.05,-15.41 12.02,-14.28l-0.46 2.36c-0.88,3 -2.06,3.7 -2.3,6.58 3.84,-2.45 6.43,-5.01 9.62,-4.7 7.46,0.73 3.12,3.27 8.64,4.96 5.31,1.63 16.67,4.44 21.94,8.42 -4.27,3.7 -7.57,1.72 -12.85,7.62 -9.82,10.96 -14.03,33.72 -17.48,48.41 -10.83,46.15 -24.66,55.1 -27.66,61.52 -0.07,0.15 -0.04,0.38 -0.21,0.68 -0.17,0.3 -0.15,0.46 -0.18,0.7 5.22,-3.83 6.14,-4.2 9.62,-2.24 -3.66,2.24 -6.11,1.18 -10.15,4.87 5.34,-4.01 15.1,-5.53 17.54,5.76 -0.69,-4.9 -0.57,-5.93 -5.34,-9.8 12.51,-9.27 20.6,-28.2 26.93,-30.62 0.79,7.45 -17.11,28.3 -20.94,31.9 0.3,6.86 8.15,27.42 -9.68,17.92 1.93,9.17 -1.4,1.15 0.71,4.2 -2.37,0.06 -5.24,-3.79 -7.3,-6.61 0.85,2.1 2.72,4.76 4.23,7.14 0.47,0.74 1.86,2.77 1.89,2.79 2.66,2.35 -0.7,-0.9 1.85,0.49 1.06,5.3 -0.29,4.33 -0.15,9.53 2.66,-0.03 2.14,-0.58 1.85,-3.83l-0.52 -6.53c2.46,3.75 1.54,5.4 5.39,9.8 -2.3,-0.14 -2.51,-1.27 -3.26,-1.54 1.16,5.21 4.69,10.25 5.01,15.47 -2.55,-3.46 -3.85,-6.89 -5.13,-11.09 -1.55,-0.37 -5.69,1.07 -11.68,-7.69 -2.81,-4.12 -4.07,-8.27 -6.4,-12.51 -1.65,26.57 3.14,24.16 9.3,35.98 -2.7,3.91 -13.29,12.87 -16.59,14.31 -2.91,1.27 -15.93,1.2 -17.7,0.73l-18.13 70.37c-23.84,80.79 -53.38,149.84 -106.89,210.43 -3.38,-2.6 -6.21,-6.8 -8.36,-10.16 2.63,-4.8 6.99,-10.04 10.19,-15.02 3.44,-5.35 7.05,-10.39 10.56,-15.67 27.2,-40.98 59.05,-106.26 72.67,-154.33 2.23,-7.87 16.02,-56.1 18.36,-59.19z"/>
  <path class="fil3" d="M1596.36 265.6c4.45,-6.4 5.73,-23.59 9.03,-32.17l8.1 4.82c-0.23,7.56 -10.09,46.18 -11.65,49.08 -2.85,5.28 0.44,-3.91 -2.91,3.27 -0.15,0.33 -0.52,2.15 -0.51,2.59l0.1 6.6c-1.33,5.46 -4.85,18.05 -6.71,21.89 0.93,-1.19 1.62,-5.54 2.37,-8.5 1.5,-5.93 2.53,-6.71 1.27,-9.04 -3.89,7.99 -14.46,45.77 -20.54,61.74 -0.51,1.34 -1.18,2.82 -1.62,4.1l5.54 -9.23c-4.1,16.66 -20.84,52.31 -28.7,68.25 -10.42,21.13 -28.21,51.22 -42.42,68.67 -0.03,-0.05 0.74,-1.62 -0.89,-2.27l-12.37 16.93 10.82 -11.82 -11.72 16.41 -7.33 -7.23c2.13,-4.77 15.75,-23.33 19.61,-28.98 15.58,-22.83 40.97,-69.22 52.43,-94.29 14.84,-32.46 27.71,-77.1 36.98,-113.4 0.59,-2.29 1.63,-5.11 1.12,-7.44z"/>
  <path class="fil3" d="M1589.08 221.06l-1.96 -2.34 3.89 -9.28 -7.24 10.22c-3.31,-0.88 -7.26,-5.47 -7.02,-8.96 0.17,-2.52 3.28,-9.16 4.55,-11.87 3.34,-7.15 8.69,-18.11 13.25,-24.48 1.17,0.06 0.23,1.6 2.87,1.25 3.57,-0.47 1.26,-0.4 4.7,0.42 0.54,3.5 -0.74,1.99 -0.81,5.55l2.94 -5.26 6.52 1.45c-3.29,6.73 -14.76,29.81 -15.48,34.94 3.02,-2.05 14.88,-28.7 18.28,-35.03 3.31,0.92 6.9,1.36 10.08,1.91 -1.27,9.66 -2.41,17.53 -1.74,27.43l1.01 5.2c2.16,-7.14 0.74,-26.99 2.78,-32.47 2.77,0.2 5.85,0.17 8.17,0.88 -1.57,6.31 -2.2,14.76 -2.3,21.58 -0.1,6.66 0.45,15.23 5.6,21.84 0.06,-1.92 0.15,-1.15 -0.29,-3.1 -0.94,-4.23 -3.69,-7.77 -3.44,-19.67 0.09,-4.41 0.71,-12.74 1.93,-17.39 0.9,-3.44 0.77,-3.02 3.34,-3.76 0.89,1.56 0.52,0.56 0.83,2.42 1.54,9.27 -5.45,26.51 9.04,40.56 -10.95,10.47 -14.4,14.03 -25.48,12.56 0.26,-2.64 0.63,-3.83 -0.1,-6.43 -1.64,3.48 -0.8,3.92 -1.69,7.03 -3.13,-1.1 -8.09,-2.38 -10.8,-3.99 0.24,-0.85 0.62,-1.96 0.79,-3.01 0.11,-0.71 0.2,-1.53 0.22,-2.25l-3.09 5.37 -8.28 -5.17c1.03,-2.12 1.93,-3.62 1.93,-6.15 -2.04,3.29 -1.67,3.43 -3.49,4.55l-6.7 -3.85c-0.24,-0.1 -0.93,-0.37 -1.15,-0.44 -1.52,-0.45 -1.29,-0.28 -1.68,-0.24z"/>
  <path class="fil3" d="M1569.55 8.61c0.9,0.75 1.99,1.24 3.01,2.02 5.43,4.17 8,11.3 10,17.92 4.4,14.63 3.38,26.29 5.77,38.3 1.02,5.12 0.29,8.11 0.77,12.96 0.25,2.51 0.88,3.89 1.14,6.33 0.25,2.31 -0.04,4.08 0.37,6.45 0.91,5.27 2.49,6.46 1.7,13.38 -3.28,-4.84 -4.13,-10.25 -5.73,-15.27 -1.63,-5.08 -3.05,-10.08 -4.65,-14.65 0.95,7.96 3.49,16.66 3.25,20.28 -4.83,-8.8 -7.72,-33.53 -9.44,-41.1 -0.7,-3.09 -0.96,-4.49 -1.39,-7.66 -0.85,-6.36 -1.68,-9.56 -0.67,-16.78 1.96,4.04 0.74,3.05 1.71,7.45 2.82,12.78 8.46,34.88 12.66,46.48 0.31,-3.98 -4.36,-31.47 -4.79,-42.53 -1.07,-27.98 -17.39,-31.67 -20.78,-37.71 4.76,-0.56 19.21,1.14 23.94,2.78l-0.69 -1.27c-0.09,-0.19 -0.24,-0.48 -0.33,-0.68 -0.91,-2.12 -0.32,-0.09 -0.72,-2.31 1.97,0.61 3.63,0.5 5.13,2.27l3.09 5.8c-6.77,-4.5 -18.68,-2.87 -25.48,-5.1l2.11 2.62z"/>
  <path class="fil3" d="M1657.58 40.86c-0.34,-3.17 1.25,-6.11 1.8,-8.91 -9.67,0.32 -5.49,9.37 -9.27,15.58 -2.71,-2.92 -1.34,-5.73 -1.68,-9.64 -1.31,-14.81 -1.31,-11.16 -17.98,-18.78 -0.44,4.56 -0.24,15.31 0.3,19.77l0.74 15.59c1.01,11.04 2.63,35.07 -1.05,45 -1.63,-4.42 -0.2,-9.68 0.09,-14.14 0.74,-11.68 -1.96,-27.47 -5.27,-38.98 -13.26,-46.12 -22.82,-29.87 -32.68,-40.74 8.75,1.33 17.59,4.38 24.07,13.97 2.89,4.28 5.45,8.58 7.7,13.13 2.13,4.29 3.27,10.03 5.23,13.41 -0.71,-4.99 -3.01,-25.99 -2,-29.91 2.73,-0.15 12.36,4.25 15.36,5.94 6.25,3.53 6.31,9.53 8.06,14.9 4.71,-7.81 4.84,-9.72 11.44,-5.41l-4.86 9.23z"/>
  <path class="fil3" d="M1599.99 154.09c3.51,-3.21 14.28,4.11 21.29,7.36l22.56 9.43c-4.55,3.48 -16.89,-3.12 -21.95,-5.3 -3.12,-1.35 -21.05,-7.47 -21.89,-11.49z"/>
  <path class="fil3" d="M1593.21 169.34c2.6,-1.43 9.2,1.47 12.44,2.18 4.23,0.93 8.18,1.45 12.72,1.97 4.41,0.51 8.23,0.53 12.6,0.68 1.99,0.07 11.11,-1.39 11.42,1.42 0.62,5.53 -31.02,-0.14 -36.34,-0.94 -4.46,-0.67 -9.08,-0.87 -12.84,-5.31z"/>
  <path class="fil3" d="M1646.69 191.71c0.78,-1.18 -1.59,-0.39 0.61,-0.14l1.88 0.33c-2.05,-2.4 -3.31,-4.17 -3.18,-7.24 3.75,4.45 9.28,11.62 11.17,16.82 -2,-0.62 -1.82,-0.81 -4.41,-3.63l2.48 6.98c-3.92,-3.57 -6.93,-8.58 -8.55,-13.13z"/>
  <path class="fil3" d="M1661.75 175.05c2.83,4.6 3.01,5.41 2.16,9.6 -4.08,0.38 -6.5,-1.97 -10.25,-4.92l8.09 -4.68z"/>
  <path class="fil4" d="M447.41 2113.01c-2.61,0 -5.28,-0.17 -8.01,-0.51 -7.15,-0.91 -12.41,-3.04 -15.76,-6.39 -3.35,-3.35 -5.03,-6.96 -5.03,-10.82 0,-4.2 1.84,-8.01 5.54,-11.42 3.69,-3.41 8.95,-5.11 15.76,-5.11 4.54,0 9.49,0.91 14.82,2.73 2.27,0.68 5.09,1.84 8.44,3.49 3.35,1.64 6.68,3.32 9.97,5.03 3.29,1.7 5.85,3.07 7.67,4.09 5,-4.89 9.62,-10.54 13.88,-16.96 4.26,-6.42 8.32,-13.29 12.19,-20.62 3.86,-7.33 7.78,-14.74 11.76,-22.24 3.98,-7.5 8.15,-14.8 12.53,-21.9 4.38,-7.1 9.23,-13.6 14.57,-19.51 -5.91,-3.63 -12.41,-6.45 -19.51,-8.44 -7.1,-1.99 -14.4,-2.98 -21.9,-2.98 -2.84,0 -5.71,0.17 -8.6,0.51 -2.9,0.34 -5.82,0.8 -8.78,1.36 -10.57,2.27 -19.48,5.88 -26.75,10.82 -7.27,4.94 -12.75,10.34 -16.44,16.19 -3.69,5.85 -5.54,11.39 -5.54,16.61 0,3.86 1.02,7.27 3.07,10.23 2.05,2.95 5.17,5.05 9.37,6.3 3.07,0.91 5.74,1.37 8.01,1.37 3.75,0 7.02,-0.77 9.8,-2.3 2.78,-1.53 5.14,-3.44 7.07,-5.71 1.93,-2.27 3.38,-4.49 4.35,-6.65 0.97,-2.16 1.5,-3.92 1.62,-5.28 0,-0.8 0.51,-1.19 1.54,-1.19 1.59,0 2.22,0.97 1.87,2.9 -0.57,4.54 -2.27,8.49 -5.11,11.84 -2.84,3.35 -6.25,5.96 -10.23,7.84 -3.97,1.87 -8.06,2.81 -12.27,2.81 -2.72,0 -5.56,-0.46 -8.52,-1.37 -5.23,-1.82 -9.63,-4.97 -13.21,-9.46 -3.58,-4.49 -5.37,-9.8 -5.37,-15.93 0,-6.02 2.02,-12.07 6.05,-18.15 4.03,-6.08 10.48,-11.56 19.34,-16.44 8.86,-4.89 20.45,-8.35 34.76,-10.4 4.77,-0.68 9.6,-1.02 14.48,-1.02 8.07,0 15.99,0.97 23.77,2.9 7.78,1.93 15.14,4.71 22.07,8.35l4.26 -4.94c1.02,-0.91 2.47,-2.05 4.34,-3.41 1.87,-1.37 3.78,-2.67 5.71,-3.92 1.93,-1.25 3.35,-2.04 4.26,-2.38 1.48,-0.57 2.67,-0.85 3.58,-0.85 0.68,0 1.02,0.17 1.02,0.51 0,0.8 -0.91,1.76 -2.72,2.9 -1.14,0.79 -2.16,1.67 -3.07,2.64 -0.91,0.97 -1.59,1.73 -2.04,2.3 -1.7,2.39 -3.04,4.32 -4.01,5.79 -0.97,1.48 -2.24,3.41 -3.83,5.79 10.45,6.93 18.97,15.88 25.56,26.84 6.59,10.96 9.88,23.49 9.88,37.57 0,2.95 -0.17,5.96 -0.51,9.03 -0.68,7.27 -2.67,13.86 -5.96,19.76 -3.29,5.91 -7.58,10.91 -12.86,15 -5.28,4.09 -11.13,7.24 -17.55,9.46 -6.42,2.21 -13.15,3.32 -20.19,3.32 -2.61,0 -5.23,-0.17 -7.84,-0.51 -11.13,-1.36 -20.31,-3.15 -27.52,-5.37 -7.21,-2.22 -13.54,-4.52 -19,-6.9 -10.34,8.52 -21.92,12.78 -34.76,12.78zm86.22 -5.11c9.09,0 17.13,-1.96 24.11,-5.88 6.99,-3.92 12.64,-9.06 16.95,-15.42 4.32,-6.36 6.87,-13.24 7.67,-20.62 0.34,-2.72 0.51,-5.45 0.51,-8.18 0,-12.38 -2.64,-23.66 -7.92,-33.82 -5.28,-10.17 -12.24,-18.72 -20.87,-25.65 -5,7.84 -10.14,16.13 -15.42,24.88 -5.28,8.75 -10.59,17.41 -15.93,25.99 -5.34,8.57 -10.53,16.5 -15.59,23.77 -5.05,7.27 -9.8,13.29 -14.23,18.06 -0.8,0.68 -1.79,1.67 -2.98,2.98 -1.19,1.31 -2.41,2.36 -3.66,3.15 5.34,2.39 11.42,4.55 18.23,6.48 6.82,1.93 14.83,3.3 24.03,4.09 1.02,0.11 1.9,0.17 2.64,0.17 0.74,0 1.56,0 2.47,0zm-89.97 -0.17c6.25,0.34 12.1,-0.43 17.55,-2.3 5.45,-1.88 10.51,-4.52 15.16,-7.92 -4.09,-1.93 -8.23,-3.95 -12.44,-6.05 -4.2,-2.1 -8.63,-4 -13.29,-5.71 -3.07,-1.02 -5.79,-1.54 -8.18,-1.54 -4.2,0 -7.39,1.17 -9.54,3.49 -2.16,2.33 -3.24,4.91 -3.24,7.75 0,3.07 1.19,5.82 3.58,8.27 2.39,2.44 5.85,3.77 10.39,4zm176.71 -70.54c-1.7,0 -3.1,-0.6 -4.18,-1.79 -1.08,-1.19 -1.62,-2.64 -1.62,-4.35 0,-2.16 0.85,-4.03 2.56,-5.62 1.7,-1.59 3.58,-2.39 5.62,-2.39 1.82,0 3.29,0.57 4.43,1.7 1.14,1.14 1.7,2.5 1.7,4.09 0,2.16 -0.85,4.09 -2.56,5.79 -1.7,1.7 -3.69,2.56 -5.96,2.56zm-13.8 69.18c-4.21,0 -7.16,-1.22 -8.86,-3.67 -1.7,-2.44 -2.55,-5.25 -2.55,-8.43 0,-1.7 0.2,-3.44 0.59,-5.2 0.4,-1.76 0.88,-3.38 1.45,-4.86l11.42 -29.14c0.34,-0.91 0.51,-1.7 0.51,-2.39 0,-1.14 -0.29,-2.13 -0.85,-2.98 -0.57,-0.85 -0.96,-1.45 -1.19,-1.79l9.37 -0.34c1.7,-0.11 2.93,0.08 3.66,0.59 0.74,0.51 1.11,1.11 1.11,1.79 0,0.68 -0.4,1.93 -1.19,3.75l-14.14 33.23c0,0 -0.31,0.71 -0.94,2.13 -0.62,1.42 -0.99,2.36 -1.11,2.81 -0.34,1.7 -0.57,2.78 -0.68,3.24 -0.11,0.45 -0.17,0.74 -0.17,0.85 0,0.11 0,0.57 0,1.36 0,1.48 0.37,2.73 1.11,3.75 0.74,1.02 2.02,1.53 3.83,1.53 1.14,0 2.44,-0.34 3.92,-1.02 1.47,-0.68 2.55,-1.36 3.24,-2.04 2.84,-2.95 5.65,-6.85 8.44,-11.67 2.78,-4.83 5.37,-9.63 7.75,-14.4 0.46,-1.14 1.02,-1.7 1.7,-1.7 0.57,0 0.85,0.4 0.85,1.19 0,0.45 -0.17,1.14 -0.51,2.04 -1.14,2.39 -2.55,5.34 -4.26,8.86 -1.7,3.52 -3.72,7.02 -6.05,10.48 -2.33,3.46 -4.85,6.33 -7.58,8.6 -2.73,2.27 -5.68,3.41 -8.86,3.41zm13.12 54.36c-10.79,0 -16.19,-4.43 -16.19,-13.29 0,-4.2 1.48,-7.95 4.43,-11.25 2.95,-3.29 6.48,-6.13 10.56,-8.52 5.68,-3.41 11.19,-6.13 16.53,-8.18 5.34,-2.04 10.42,-3.83 15.25,-5.37 4.83,-1.53 9.4,-3.21 13.72,-5.03 2.04,-6.02 3.41,-12.33 4.09,-18.91 0.34,-3.41 0.51,-6.36 0.51,-8.86 0,-2.61 -0.17,-4.32 -0.51,-5.11 -1.25,2.39 -2.9,5.28 -4.94,8.69 -2.05,3.41 -4.38,6.73 -6.99,9.97 -2.61,3.24 -5.43,5.93 -8.44,8.09 -3.01,2.16 -6.11,3.24 -9.29,3.24 -1.14,0 -2.22,-0.17 -3.24,-0.52 -3.18,-1.36 -5.48,-3.29 -6.9,-5.79 -1.42,-2.5 -2.13,-5.34 -2.13,-8.52 0,-5.11 1.48,-10.62 4.43,-16.53 2.95,-5.91 6.48,-11.3 10.57,-16.19 3.29,-3.98 7.15,-7.16 11.59,-9.54 4.43,-2.39 8.92,-3.58 13.46,-3.58 5.23,0 10.11,1.76 14.66,5.28 1.7,1.36 2.55,2.84 2.55,4.43 0,1.7 -0.68,2.56 -2.04,2.56 -1.14,0 -1.93,-0.74 -2.39,-2.22 -1.59,-4.2 -4.15,-6.31 -7.67,-6.31 -2.84,0 -6.08,1.22 -9.71,3.66 -3.63,2.44 -7.04,5.48 -10.22,9.12 -2.73,3.07 -5.37,6.59 -7.92,10.57 -2.56,3.97 -4.66,7.9 -6.31,11.76 -1.65,3.86 -2.47,7.22 -2.47,10.06 0,1.93 0.46,3.58 1.37,4.94 0.91,1.36 2.33,2.04 4.26,2.04 2.61,0 5.37,-1.25 8.26,-3.75 2.9,-2.5 5.68,-5.57 8.35,-9.2 2.67,-3.64 5,-7.33 6.99,-11.08 1.99,-3.75 3.38,-6.87 4.18,-9.37 0.79,-2.61 1.87,-4.23 3.24,-4.85 1.37,-0.63 2.73,-0.94 4.09,-0.94 1.36,0 2.5,-0.34 3.41,-1.02 0.46,2.5 0.77,5.03 0.94,7.59 0.17,2.55 0.26,5.14 0.26,7.75 0,8.75 -1.14,17.55 -3.41,26.41 2.05,-1.59 4.18,-3.32 6.39,-5.2 2.21,-1.88 4.12,-3.89 5.71,-6.05 2.84,-3.86 4.97,-7.41 6.39,-10.65 1.42,-3.24 2.53,-5.77 3.32,-7.59 0.68,-1.14 1.42,-1.7 2.21,-1.7 0.68,0 1.02,0.34 1.02,1.02 0,0.57 -0.23,1.25 -0.68,2.05 -2.84,6.02 -5.45,11.16 -7.84,15.42 -2.39,4.26 -5,7.84 -7.84,10.73 -2.84,2.9 -6.36,5.37 -10.57,7.41 -1.82,5.45 -4.54,11.19 -8.18,17.21 -3.63,6.02 -7.9,11.7 -12.78,17.04 -4.88,5.34 -10.22,9.68 -16.02,13.04 -5.79,3.35 -11.81,5.03 -18.06,5.03zm-4.09 -3.41c2.5,0 5.14,-0.54 7.92,-1.62 2.78,-1.08 5.43,-2.36 7.92,-3.83 2.5,-1.48 4.43,-2.73 5.79,-3.75 2.61,-2.04 5.28,-4.6 8.01,-7.67 2.73,-3.07 5.11,-6.02 7.16,-8.86 1.93,-2.72 3.78,-5.59 5.54,-8.6 1.76,-3.01 3.27,-5.99 4.52,-8.95 -0.91,0.34 -2.02,0.74 -3.32,1.19 -1.31,0.46 -2.24,0.79 -2.81,1.02 -3.75,1.25 -7.87,2.7 -12.36,4.34 -4.49,1.65 -8.94,3.47 -13.38,5.46 -4.43,1.99 -8.46,4.17 -12.1,6.56 -3.18,2.16 -5.82,5 -7.92,8.52 -2.1,3.52 -3.15,6.59 -3.15,9.2 0,1.93 0.65,3.58 1.96,4.94 1.31,1.36 3.38,2.05 6.22,2.05zm66.63 -49.59c4.09,-8.29 8.04,-16.5 11.84,-24.62 3.8,-8.12 7.7,-15.88 11.67,-23.26 2.27,-4.09 4.17,-6.96 5.71,-8.6 1.54,-1.65 3.61,-2.47 6.22,-2.47 0.91,0 1.87,0.14 2.89,0.43 1.02,0.28 2.05,0.43 3.07,0.43 0.68,0 1.19,-0.06 1.53,-0.17 -1.59,0.91 -3.63,3.15 -6.13,6.73 -2.5,3.58 -5.06,7.7 -7.67,12.35 -2.61,4.66 -4.94,9.03 -6.99,13.12 2.16,-2.61 4.4,-5.23 6.73,-7.84 2.33,-2.61 4.91,-5.11 7.75,-7.5 2.73,-2.39 5.99,-4.85 9.8,-7.41 3.81,-2.55 7.53,-4.68 11.16,-6.39 3.63,-1.7 6.53,-2.56 8.69,-2.56 0.8,0 1.36,0.06 1.7,0.17 0,0 -0.62,1.11 -1.87,3.32 -1.25,2.22 -2.81,5.11 -4.68,8.69 -1.88,3.58 -3.78,7.38 -5.71,11.42 -1.93,4.03 -3.66,7.89 -5.2,11.59 -1.54,3.69 -2.53,6.79 -2.98,9.29 -0.34,1.47 -0.51,2.84 -0.51,4.09 0,1.82 0.34,3.01 1.02,3.58 0.68,0.57 1.42,0.85 2.22,0.85 2.16,0 4.43,-1.16 6.82,-3.49 2.39,-2.33 4.68,-5.2 6.9,-8.6 2.22,-3.41 4.2,-6.73 5.96,-9.97 1.76,-3.24 3.04,-5.71 3.83,-7.41 0.45,-0.91 0.79,-1.45 1.02,-1.62 0.23,-0.17 0.57,-0.26 1.02,-0.26 0.68,0 1.02,0.46 1.02,1.37 0,0.57 -0.17,1.19 -0.51,1.87 -1.37,2.61 -2.98,5.74 -4.86,9.37 -1.87,3.64 -4,7.19 -6.39,10.65 -2.38,3.46 -5,6.36 -7.84,8.69 -2.84,2.33 -5.91,3.5 -9.2,3.5 -2.27,0 -4.63,-0.8 -7.07,-2.39 -2.44,-1.59 -3.66,-4.54 -3.66,-8.86 0,-1.25 0.11,-2.58 0.34,-4 0.23,-1.42 0.62,-2.98 1.19,-4.69 0.91,-2.27 1.99,-4.71 3.24,-7.33 1.25,-2.61 3.3,-6.19 6.14,-10.74 0.79,-1.25 1.28,-2.22 1.45,-2.89 0.17,-0.68 0.26,-1.25 0.26,-1.7 0,-1.37 -0.63,-2.05 -1.88,-2.05 -1.02,0 -2.53,0.57 -4.51,1.7 -1.99,1.14 -4.46,3.12 -7.42,5.96 -2.84,2.72 -6.22,6.59 -10.14,11.59 -3.92,5 -8.43,12.38 -13.54,22.15 -0.8,1.48 -1.68,2.27 -2.65,2.39 -0.97,0.11 -2.3,0.22 -4,0.34 -1.14,0.11 -2.22,0.2 -3.24,0.26 -1.02,0.06 -1.87,0.37 -2.56,0.94zm92.53 -70.54c-1.7,0 -3.1,-0.6 -4.17,-1.79 -1.08,-1.19 -1.62,-2.64 -1.62,-4.35 0,-2.16 0.85,-4.03 2.55,-5.62 1.7,-1.59 3.58,-2.39 5.62,-2.39 1.82,0 3.29,0.57 4.43,1.7 1.14,1.14 1.7,2.5 1.7,4.09 0,2.16 -0.85,4.09 -2.56,5.79 -1.7,1.7 -3.69,2.56 -5.96,2.56zm-13.8 69.18c-4.21,0 -7.16,-1.22 -8.86,-3.67 -1.7,-2.44 -2.55,-5.25 -2.55,-8.43 0,-1.7 0.2,-3.44 0.59,-5.2 0.4,-1.76 0.88,-3.38 1.45,-4.86l11.42 -29.14c0.34,-0.91 0.51,-1.7 0.51,-2.39 0,-1.14 -0.29,-2.13 -0.85,-2.98 -0.57,-0.85 -0.97,-1.45 -1.19,-1.79l9.37 -0.34c1.7,-0.11 2.93,0.08 3.66,0.59 0.74,0.51 1.11,1.11 1.11,1.79 0,0.68 -0.4,1.93 -1.19,3.75l-14.14 33.23c0,0 -0.31,0.71 -0.94,2.13 -0.62,1.42 -1,2.36 -1.11,2.81 -0.34,1.7 -0.57,2.78 -0.68,3.24 -0.11,0.45 -0.17,0.74 -0.17,0.85 0,0.11 0,0.57 0,1.36 0,1.48 0.37,2.73 1.11,3.75 0.74,1.02 2.02,1.53 3.83,1.53 1.13,0 2.44,-0.34 3.92,-1.02 1.48,-0.68 2.55,-1.36 3.24,-2.04 2.84,-2.95 5.65,-6.85 8.44,-11.67 2.78,-4.83 5.37,-9.63 7.75,-14.4 0.46,-1.14 1.02,-1.7 1.7,-1.7 0.57,0 0.85,0.4 0.85,1.19 0,0.45 -0.17,1.14 -0.51,2.04 -1.14,2.39 -2.55,5.34 -4.26,8.86 -1.7,3.52 -3.72,7.02 -6.05,10.48 -2.33,3.46 -4.85,6.33 -7.58,8.6 -2.73,2.27 -5.68,3.41 -8.86,3.41zm33.06 0c-3.18,0 -6.02,-1.11 -8.52,-3.32 -2.5,-2.22 -3.75,-5.71 -3.75,-10.48 0,-3.75 0.71,-8.38 2.13,-13.89 1.42,-5.51 3.18,-11.25 5.28,-17.21 2.1,-5.96 4.17,-11.39 6.22,-16.28l-9.03 0c-0.8,0 -1.19,-0.57 -1.19,-1.7 0,-0.56 0.14,-1.08 0.43,-1.53 0.29,-0.46 0.71,-0.68 1.28,-0.68l10.22 0c1.93,-4.32 3.98,-8.52 6.14,-12.61 2.16,-4.09 4.26,-7.95 6.3,-11.59 2.61,-4.54 5.4,-7.95 8.35,-10.22 2.95,-2.27 5.51,-3.41 7.67,-3.41 1.7,0 3.13,0.65 4.26,1.96 1.13,1.31 1.7,3.27 1.7,5.88 0,1.59 -0.34,3.78 -1.02,6.56 -0.68,2.78 -1.76,5.71 -3.24,8.78 -0.8,1.59 -1.9,3.86 -3.32,6.82 -1.42,2.95 -2.81,5.57 -4.18,7.84l8.18 0c0.79,0 1.19,0.57 1.19,1.7 0,0.46 -0.11,0.94 -0.34,1.45 -0.23,0.51 -0.57,0.76 -1.02,0.76l-10.05 0c-2.84,4.89 -6.08,9.66 -9.71,14.32 -3.64,4.66 -7.95,9.32 -12.95,13.97 -0.34,1.02 -0.76,2.5 -1.28,4.43 -0.51,1.93 -0.97,3.89 -1.36,5.88 -0.4,1.99 -0.74,3.66 -1.02,5.03 -0.29,1.36 -0.43,2.04 -0.43,2.04 -0.34,1.48 -0.51,2.84 -0.51,4.09 0,2.39 0.56,4.12 1.7,5.2 1.14,1.08 2.44,1.62 3.92,1.62 0.91,0 1.82,-0.14 2.72,-0.43 0.91,-0.28 1.93,-0.82 3.07,-1.62 3.98,-2.84 7.47,-6.7 10.48,-11.59 3.01,-4.89 5.65,-9.6 7.93,-14.14 0.68,-1.36 1.36,-2.05 2.04,-2.05 0.46,0 0.68,0.34 0.68,1.02 0,0.34 -0.17,0.97 -0.51,1.87 -2.5,5.23 -4.6,9.43 -6.31,12.61 -1.7,3.18 -3.35,5.82 -4.94,7.92 -1.59,2.1 -3.46,4.18 -5.62,6.22 -1.59,1.59 -3.41,2.78 -5.45,3.58 -2.04,0.8 -4.09,1.19 -6.13,1.19zm13.46 -65.09l8.69 0c1.59,-2.95 3.1,-5.85 4.52,-8.69 1.42,-2.84 2.7,-5.68 3.83,-8.52 0.79,-1.82 1.48,-3.86 2.04,-6.14 0.57,-2.27 0.85,-4.03 0.85,-5.28 0,-1.7 -0.4,-2.56 -1.19,-2.56 -0.57,0 -1.39,0.48 -2.47,1.45 -1.08,0.97 -2.42,2.58 -4.01,4.86 -2.04,2.84 -4.06,6.51 -6.05,10.99 -1.99,4.48 -4.06,9.12 -6.22,13.89zm-11.08 26.75c3.29,-3.41 6.39,-7.04 9.28,-10.91 2.9,-3.86 5.6,-7.84 8.09,-11.93l-8.01 0c-1.82,4.2 -3.52,8.3 -5.11,12.27 -1.59,3.98 -3.01,7.5 -4.26,10.57zm0.51 92.7c-5.91,0 -10.11,-1.16 -12.61,-3.5 -2.5,-2.33 -3.75,-5.08 -3.75,-8.26 0,-1.7 0.23,-3.18 0.68,-4.43 0.45,-1.25 1.14,-2.84 2.04,-4.77 1.59,-3.3 3.81,-6.13 6.65,-8.52 2.84,-2.38 5.91,-4.32 9.2,-5.79 5.91,-2.73 12.64,-4.94 20.19,-6.65 7.56,-1.7 14.8,-3.58 21.73,-5.62 2.16,-3.75 4.15,-8.04 5.96,-12.86 1.82,-4.83 3.46,-9.54 4.94,-14.14 1.48,-4.6 2.67,-8.38 3.58,-11.33 -1.36,2.5 -3.1,5.54 -5.2,9.12 -2.1,3.58 -4.46,7.07 -7.07,10.48 -2.61,3.41 -5.42,6.25 -8.44,8.52 -3.01,2.27 -6.16,3.41 -9.46,3.41 -1.25,0 -2.75,-0.28 -4.51,-0.85 -1.76,-0.57 -3.3,-1.62 -4.6,-3.15 -1.31,-1.54 -1.96,-3.83 -1.96,-6.9 0,-2.95 0.71,-5.82 2.13,-8.6 1.42,-2.78 2.75,-5.48 4.01,-8.09 -0.34,0 -0.71,-0.11 -1.11,-0.34 -0.4,-0.22 -0.59,-0.56 -0.59,-1.02 0,-0.46 0.11,-0.91 0.34,-1.36 0.46,-0.91 0.97,-1.88 1.54,-2.9 0.57,-1.02 1.08,-2.1 1.54,-3.24 1.7,-3.52 3.41,-6.9 5.11,-10.14 1.7,-3.24 3.18,-6.11 4.43,-8.61 1.25,-2.5 3.41,-3.75 6.48,-3.75l10.57 0c-0.8,0.68 -1.79,1.45 -2.98,2.3 -1.19,0.85 -2.3,2.13 -3.32,3.83 -3.07,5.23 -5.74,10.25 -8.01,15.08 -2.27,4.83 -4.71,9.97 -7.33,15.43 -1.25,2.61 -2.16,5 -2.72,7.15 -0.57,2.16 -0.85,4.04 -0.85,5.62 0,3.75 1.25,5.62 3.75,5.62 2.73,0 6.02,-2.21 9.88,-6.65 3.18,-3.75 6.39,-8.21 9.63,-13.38 3.24,-5.17 6.36,-10.51 9.37,-16.02 3.01,-5.51 5.65,-10.59 7.93,-15.25 1.25,-2.5 3.46,-3.75 6.65,-3.75l9.37 0c-3.29,2.27 -5.82,5.23 -7.58,8.86 -1.76,3.63 -3.72,8.3 -5.88,13.97 -2.39,6.25 -4.63,12.69 -6.73,19.34 -2.1,6.64 -4.46,13.32 -7.07,20.02 3.75,-1.25 7.98,-3.18 12.69,-5.79 4.71,-2.61 8.72,-6.36 12.01,-11.25 2.61,-3.86 4.86,-7.58 6.73,-11.16 1.87,-3.58 3.21,-6.16 4.01,-7.75 0.46,-1.14 1.08,-1.7 1.87,-1.7 0.8,0 1.19,0.51 1.19,1.54 0,0.57 -0.17,1.19 -0.51,1.87 -2.95,5.91 -5.6,10.88 -7.92,14.91 -2.33,4.03 -4.88,7.5 -7.67,10.4 -2.78,2.89 -6.16,5.45 -10.14,7.67 -3.97,2.21 -9.03,4.46 -15.16,6.73 -2.73,4.89 -5.82,9.97 -9.29,15.25 -3.46,5.28 -7.39,10.22 -11.76,14.82 -4.37,4.6 -9.2,8.35 -14.48,11.25 -5.28,2.9 -11.1,4.35 -17.47,4.35zm-4.09 -3.41c3.75,0 7.61,-1.14 11.59,-3.41 3.98,-2.27 7.84,-5.14 11.59,-8.61 3.75,-3.46 7.19,-6.99 10.31,-10.56 3.12,-3.58 5.65,-6.73 7.58,-9.46 0.57,-0.79 1.19,-1.82 1.88,-3.07 0.68,-1.25 1.36,-2.44 2.04,-3.58 -5.56,1.48 -11.67,3.1 -18.32,4.86 -6.64,1.76 -12.41,3.72 -17.3,5.88 -5.45,2.27 -9.74,5.51 -12.86,9.71 -3.12,4.2 -4.68,7.95 -4.68,11.25 0,2.05 0.65,3.72 1.96,5.03 1.31,1.31 3.38,1.96 6.22,1.96zm180.8 -24.2c-10.34,0 -19.57,-1.5 -27.69,-4.52 -8.12,-3.01 -14.51,-7.41 -19.17,-13.21 -4.66,-5.79 -6.99,-12.84 -6.99,-21.13 0,-5.68 1.31,-11.99 3.92,-18.92 1.48,-3.86 3.72,-7.47 6.73,-10.82 3.01,-3.35 6.11,-6.11 9.29,-8.27 3.18,-2.16 5.68,-3.29 7.5,-3.41l0.51 0c1.02,0 1.54,0.17 1.54,0.51 0,0.56 -0.74,1.19 -2.22,1.87 -1.82,0.8 -4.12,2.5 -6.9,5.11 -2.78,2.61 -5.43,5.82 -7.92,9.63 -2.5,3.81 -4.37,8.1 -5.62,12.87 -0.45,1.59 -0.77,3.18 -0.94,4.77 -0.17,1.59 -0.25,3.12 -0.25,4.6 0,6.13 1.45,11.42 4.35,15.85 2.9,4.43 6.76,8.09 11.59,10.99 4.83,2.9 10.14,5.05 15.93,6.48 5.79,1.42 11.59,2.13 17.38,2.13 2.61,0 5.2,-0.14 7.75,-0.43 2.56,-0.28 4.97,-0.71 7.24,-1.28 10,-2.5 19.08,-6.31 27.26,-11.42 8.18,-5.11 15.54,-10.96 22.07,-17.55 6.53,-6.59 12.24,-13.43 17.12,-20.53 4.89,-7.1 9.03,-13.94 12.44,-20.53 3.41,-6.59 6.02,-12.44 7.84,-17.55 3.41,-9.09 6.84,-17.44 10.31,-25.05 3.47,-7.61 6.62,-14.06 9.46,-19.34 2.84,-5.28 4.89,-8.95 6.14,-10.99 -6.14,1.37 -12.69,2.93 -19.68,4.68 -6.99,1.76 -13.89,3.98 -20.7,6.65 -6.82,2.67 -13.21,5.94 -19.17,9.8 -5.96,3.86 -11.05,8.52 -15.25,13.97 -4.2,5.45 -7.16,11.87 -8.86,19.25 -0.57,2.61 -0.85,4.89 -0.85,6.82 0,5 1.22,9.06 3.66,12.19 2.44,3.12 5.76,4.68 9.97,4.68 2.39,0 4.83,-0.51 7.33,-1.53 4.2,-1.7 7.47,-3.95 9.8,-6.73 2.33,-2.78 3.95,-5.68 4.86,-8.69 0.91,-3.01 1.36,-5.71 1.36,-8.09 0,-3.41 -0.51,-5.51 -1.53,-6.31 0,-0.11 -0.03,-0.17 -0.09,-0.17 -0.06,0 -0.08,-0.06 -0.08,-0.17 0,-0.57 0.26,-1.14 0.77,-1.7 0.51,-0.57 1.05,-0.85 1.62,-0.85 0.57,0 1.02,0.4 1.36,1.19 1.36,2.72 2.05,5.57 2.05,8.52 0,3.63 -0.88,7.27 -2.64,10.91 -1.76,3.63 -4.15,6.87 -7.16,9.71 -3.01,2.84 -6.33,4.94 -9.97,6.31 -3.41,1.36 -6.82,2.05 -10.22,2.05 -6.13,0 -11.39,-2.08 -15.76,-6.22 -4.37,-4.15 -6.56,-9.51 -6.56,-16.1 0,-2.05 0.23,-3.98 0.68,-5.8 1.82,-8.06 5.28,-15.11 10.39,-21.13 5.11,-6.02 11.3,-11.19 18.58,-15.51 7.27,-4.32 14.97,-7.92 23.09,-10.82 8.12,-2.9 16.16,-5.25 24.11,-7.07 7.95,-1.82 15.17,-3.3 21.64,-4.43 0.46,-0.91 1.36,-2.36 2.73,-4.35 1.36,-1.99 2.95,-3.92 4.77,-5.79 1.82,-1.88 3.63,-3.1 5.45,-3.66 1.36,-0.46 2.84,-0.68 4.43,-0.68 1.59,0 2.9,0.4 3.92,1.19 1.02,0.8 1.54,2.05 1.54,3.75 0,3.3 -1.39,5.77 -4.18,7.42 -2.78,1.64 -5.82,3.1 -9.12,4.34 -1.02,0 -2.24,0.26 -3.66,0.77 -1.42,0.51 -2.53,0.76 -3.32,0.76 -4.2,7.61 -7.67,15.11 -10.39,22.49 -2.73,7.39 -5.2,14.63 -7.41,21.73 -2.22,7.1 -4.51,14.14 -6.9,21.13 -2.39,6.99 -5.34,13.97 -8.86,20.96 -3.52,6.98 -8.01,14 -13.46,21.04 -9.32,12.04 -19.79,21.53 -31.44,28.46 -11.64,6.93 -23.66,11.42 -36.04,13.46 -3.41,0.57 -6.76,0.99 -10.05,1.28 -3.29,0.28 -6.42,0.43 -9.37,0.43zm136.83 -155.41c4.43,-0.91 7.41,-1.93 8.95,-3.07 1.54,-1.14 2.3,-2.16 2.3,-3.07 0,-0.68 -0.23,-1.22 -0.68,-1.62 -0.46,-0.4 -0.91,-0.6 -1.36,-0.6 -0.57,-0.23 -1.42,0.14 -2.55,1.11 -1.14,0.96 -2.3,2.16 -3.5,3.58 -1.19,1.42 -2.24,2.64 -3.15,3.66z"/>
  <path class="fil4" d="M1072.61 2107.73c4.09,-8.29 8.04,-16.5 11.84,-24.62 3.8,-8.12 7.7,-15.88 11.67,-23.26 2.27,-4.09 4.17,-6.96 5.71,-8.6 1.54,-1.65 3.61,-2.47 6.22,-2.47 0.91,0 1.87,0.14 2.89,0.43 1.02,0.28 2.04,0.43 3.07,0.43 0.68,0 1.19,-0.06 1.53,-0.17 -1.59,0.91 -3.63,3.15 -6.13,6.73 -2.5,3.58 -5.06,7.7 -7.67,12.35 -2.61,4.66 -4.94,9.03 -6.99,13.12 2.16,-2.61 4.4,-5.23 6.73,-7.84 2.33,-2.61 4.91,-5.11 7.75,-7.5 2.73,-2.39 5.99,-4.85 9.8,-7.41 3.81,-2.55 7.53,-4.68 11.16,-6.39 3.63,-1.7 6.53,-2.56 8.69,-2.56 0.8,0 1.36,0.06 1.7,0.17 0,0 -0.62,1.11 -1.87,3.32 -1.25,2.22 -2.81,5.11 -4.68,8.69 -1.88,3.58 -3.78,7.38 -5.71,11.42 -1.93,4.03 -3.66,7.89 -5.2,11.59 -1.54,3.69 -2.53,6.79 -2.98,9.29 -0.34,1.47 -0.51,2.84 -0.51,4.09 0,1.82 0.34,3.01 1.02,3.58 0.68,0.57 1.42,0.85 2.22,0.85 2.16,0 4.43,-1.16 6.81,-3.49 2.39,-2.33 4.69,-5.2 6.9,-8.6 2.22,-3.41 4.2,-6.73 5.96,-9.97 1.76,-3.24 3.04,-5.71 3.83,-7.41 0.45,-0.91 0.79,-1.45 1.02,-1.62 0.23,-0.17 0.57,-0.26 1.02,-0.26 0.68,0 1.02,0.46 1.02,1.37 0,0.57 -0.17,1.19 -0.51,1.87 -1.37,2.61 -2.98,5.74 -4.86,9.37 -1.87,3.64 -4,7.19 -6.39,10.65 -2.38,3.46 -5,6.36 -7.84,8.69 -2.84,2.33 -5.91,3.5 -9.2,3.5 -2.27,0 -4.63,-0.8 -7.07,-2.39 -2.44,-1.59 -3.66,-4.54 -3.66,-8.86 0,-1.25 0.11,-2.58 0.34,-4 0.23,-1.42 0.62,-2.98 1.19,-4.69 0.91,-2.27 1.99,-4.71 3.24,-7.33 1.25,-2.61 3.3,-6.19 6.14,-10.74 0.79,-1.25 1.28,-2.22 1.45,-2.89 0.17,-0.68 0.26,-1.25 0.26,-1.7 0,-1.37 -0.63,-2.05 -1.88,-2.05 -1.02,0 -2.53,0.57 -4.51,1.7 -1.99,1.14 -4.46,3.12 -7.42,5.96 -2.84,2.72 -6.22,6.59 -10.14,11.59 -3.92,5 -8.43,12.38 -13.54,22.15 -0.8,1.48 -1.68,2.27 -2.64,2.39 -0.97,0.11 -2.3,0.22 -4,0.34 -1.13,0.11 -2.21,0.2 -3.24,0.26 -1.02,0.06 -1.87,0.37 -2.56,0.94zm246.06 50.1c-1.02,0 -1.22,-0.77 -0.6,-2.3 0.62,-1.53 1.22,-2.92 1.79,-4.17 1.02,-2.05 1.54,-5.23 1.54,-9.55 0,-3.75 -0.68,-7.78 -2.04,-12.1 -1.36,-4.32 -4.03,-8.24 -8.01,-11.76 -5.45,-5 -11.59,-8.97 -18.4,-11.93 -6.82,-2.95 -13.94,-5.34 -21.39,-7.16 -7.44,-1.82 -14.79,-3.41 -22.07,-4.77 -4.43,6.14 -9.17,11.64 -14.23,16.53 -5.06,4.88 -10.42,8.63 -16.1,11.25 -3.18,1.48 -6.25,2.58 -9.2,3.32 -2.95,0.74 -5.74,1.11 -8.35,1.11 -6.36,0 -11.56,-1.67 -15.59,-5.03 -4.03,-3.35 -6.05,-7.3 -6.05,-11.84 0,-4.32 1.96,-8.55 5.88,-12.69 3.92,-4.15 10.42,-7.58 19.51,-10.31 3.63,-1.02 7.67,-1.79 12.1,-2.3 4.43,-0.51 9.03,-0.77 13.8,-0.77 2.96,0 5.88,0.09 8.78,0.26 2.9,0.17 5.59,0.54 8.09,1.11 3.29,-5 6.36,-10.19 9.2,-15.59 2.84,-5.4 5.79,-11.28 8.86,-17.64 -8.97,0.23 -16.75,-1.11 -23.34,-4 -6.59,-2.9 -11.67,-6.79 -15.25,-11.67 -3.58,-4.89 -5.37,-10.11 -5.37,-15.67 0,-4.55 1.31,-9.01 3.92,-13.38 2.61,-4.37 6.73,-8.35 12.35,-11.93 5.62,-3.58 12.81,-6.39 21.56,-8.44 0.57,-0.23 1.11,-0.34 1.62,-0.34 0.51,0 0.99,0 1.45,0 1.7,0 2.56,0.34 2.56,1.02 0,1.14 -1.82,1.93 -5.45,2.39 -5.91,0.68 -11.1,2.78 -15.59,6.3 -4.49,3.52 -7.95,7.72 -10.4,12.61 -2.44,4.89 -3.66,9.83 -3.66,14.83 0,4.32 1.02,8.35 3.07,12.1 2.05,3.75 5.28,6.79 9.71,9.12 4.43,2.33 10.17,3.49 17.21,3.49 2.5,0 5.17,-0.17 8.01,-0.51 0.46,-0.91 1.22,-2.76 2.3,-5.54 1.08,-2.78 2.3,-5.94 3.66,-9.46 1.36,-3.52 2.7,-6.93 4,-10.22 1.31,-3.29 2.39,-6.05 3.24,-8.26 0.85,-2.22 1.28,-3.32 1.28,-3.32 5.23,-13.06 10.6,-23.32 16.1,-30.76 5.51,-7.44 10.85,-12.69 16.02,-15.76 5.17,-3.07 9.8,-4.6 13.89,-4.6 4.43,0 8.09,1.31 10.99,3.92 2.9,2.61 4.46,5.57 4.68,8.86 0.11,1.02 0.17,1.76 0.17,2.21 0,0.46 0,1.02 0,1.7 0,6.7 -1.33,13.41 -4,20.11 -2.67,6.7 -6.36,13.06 -11.08,19.08 -4.71,6.02 -10.11,11.48 -16.19,16.36 -6.08,4.89 -12.55,8.98 -19.43,12.27 -6.87,3.3 -13.83,5.56 -20.87,6.82 -1.7,3.41 -3.21,6.45 -4.51,9.12 -1.31,2.67 -2.76,5.54 -4.35,8.6 -1.59,3.07 -3.69,6.99 -6.3,11.76 -0.8,1.48 -1.39,2.53 -1.79,3.15 -0.4,0.62 -0.99,1.56 -1.79,2.81 5.68,1.36 11.87,3.27 18.58,5.71 6.7,2.44 13.32,5.34 19.85,8.69 6.53,3.35 12.35,7.01 17.47,10.99 6.36,4.89 10.88,10.4 13.55,16.53 2.67,6.14 4.01,11.53 4.01,16.19 0,3.29 -0.51,5.79 -1.54,7.5 -1.47,2.5 -2.95,4.09 -4.43,4.77 -1.48,0.8 -2.61,1.19 -3.41,1.19zm-42.94 -111.61c7.72,-1.7 15.28,-4.8 22.66,-9.29 7.39,-4.49 14.03,-9.94 19.94,-16.36 5.91,-6.42 10.62,-13.41 14.14,-20.96 3.52,-7.55 5.28,-15.25 5.28,-23.09 0,-1.93 -0.51,-3.52 -1.53,-4.77 -1.02,-1.25 -2.5,-1.87 -4.43,-1.87 -2.61,0 -5.96,1.45 -10.05,4.35 -4.09,2.9 -8.75,7.72 -13.97,14.48 -5.23,6.76 -10.85,16.05 -16.87,27.86 0,0 -0.76,1.48 -2.3,4.43 -1.53,2.95 -3.46,6.67 -5.79,11.16 -2.33,4.49 -4.68,9.17 -7.07,14.06zm-76.51 75.15c2.5,0 5.2,-0.34 8.09,-1.02 2.9,-0.68 5.94,-1.76 9.12,-3.24 9.54,-4.66 18.34,-12.72 26.41,-24.2 -2.61,-0.57 -5.34,-0.99 -8.18,-1.28 -2.84,-0.28 -5.74,-0.43 -8.69,-0.43 -3.07,0 -6.22,0.17 -9.46,0.51 -3.24,0.34 -6.39,0.97 -9.46,1.87 -7.61,2.04 -13.43,4.66 -17.47,7.84 -4.04,3.18 -6.05,6.42 -6.05,9.71 0,2.84 1.42,5.25 4.26,7.24 2.84,1.99 6.65,2.98 11.42,2.98zm149.95 -14.49c-1.25,0.11 -2.67,-0.17 -4.26,-0.85 -1.59,-0.68 -2.98,-1.93 -4.18,-3.75 -1.19,-1.82 -1.79,-4.37 -1.79,-7.67 0,-2.72 0.51,-6.02 1.53,-9.88 -1.36,2.16 -3.12,4.8 -5.28,7.92 -2.16,3.12 -4.49,5.88 -6.99,8.26 -2.16,2.05 -4.2,3.52 -6.14,4.43 -1.93,0.91 -3.69,1.36 -5.28,1.36 -2.95,0 -5.34,-1.34 -7.16,-4.01 -1.82,-2.67 -2.72,-6.16 -2.72,-10.48 0,-4.55 1.13,-9.71 3.41,-15.51 2.27,-5.79 5.96,-11.81 11.08,-18.06 3.3,-3.98 7.3,-7.19 12.01,-9.63 4.71,-2.44 9.34,-3.66 13.89,-3.66 2.61,0 5.11,0.43 7.5,1.28 2.39,0.85 4.49,2.25 6.31,4.18 0.79,0.79 1.19,1.7 1.19,2.73 0,0.68 -0.29,1.25 -0.85,1.7 -0.57,0.46 -1.31,0.57 -2.22,0.34 -1.25,-3.98 -3.92,-5.96 -8.01,-5.96 -1.93,0 -4.15,0.62 -6.65,1.87 -3.86,2.05 -7.87,5.4 -12.01,10.05 -4.15,4.66 -7.75,9.49 -10.82,14.49 -0.45,0.68 -1.16,1.99 -2.13,3.92 -0.97,1.93 -1.9,4.09 -2.81,6.48 -0.91,2.39 -1.54,4.71 -1.88,6.99 -0.11,0.68 -0.17,1.16 -0.17,1.45 0,0.28 0,0.71 0,1.28 0,3.75 1.42,5.62 4.26,5.62 3.41,0 7.27,-2.5 11.58,-7.49 2.95,-3.64 5.62,-7.44 8.01,-11.42 2.39,-3.98 4.83,-8.24 7.33,-12.78 1.7,-3.07 3.29,-5.62 4.77,-7.67 1.48,-2.05 3.58,-3.07 6.31,-3.07 1.25,0 2.5,0.17 3.75,0.51 1.25,0.34 2.56,0.4 3.92,0.17 -0.91,0.91 -2.13,2.61 -3.66,5.11 -1.54,2.5 -3.15,5.34 -4.86,8.52 -1.7,3.18 -3.24,6.42 -4.6,9.71 -1.36,3.3 -2.33,6.13 -2.89,8.52 -0.11,0.68 -0.26,1.65 -0.43,2.9 -0.17,1.25 -0.26,2.16 -0.26,2.72 0,3.18 0.91,4.77 2.72,4.77 1.82,0 3.78,-1.08 5.88,-3.24 2.1,-2.16 4.18,-4.83 6.22,-8.01 2.05,-3.18 3.92,-6.39 5.62,-9.63 1.7,-3.24 3.07,-5.88 4.09,-7.92 0.45,-1.14 1.14,-1.7 2.04,-1.7 0.57,0 0.85,0.4 0.85,1.19 0,0.34 -0.17,0.97 -0.51,1.87 -1.36,2.84 -3.01,6.05 -4.94,9.63 -1.93,3.58 -4.04,7.04 -6.31,10.39 -2.27,3.35 -4.63,6.13 -7.07,8.35 -2.44,2.21 -4.91,3.43 -7.41,3.66zm35.44 -0.34c-4.88,0 -8.52,-1.25 -10.9,-3.75 -2.39,-2.5 -3.58,-5.62 -3.58,-9.37 0,-1.82 0.23,-3.58 0.68,-5.28 0.68,-2.61 1.67,-5.54 2.98,-8.77 1.31,-3.24 2.81,-6.56 4.51,-9.97 -3.97,7.73 -7.58,14.23 -10.82,19.51 -3.24,5.28 -5.71,8.72 -7.41,10.31 -0.34,0.34 -0.68,0.51 -1.02,0.51 -0.57,0 -0.85,-0.28 -0.85,-0.85 0,-0.45 0.17,-0.91 0.51,-1.36 2.39,-3.18 5.14,-7.56 8.27,-13.12 3.12,-5.56 6.45,-11.78 9.97,-18.66 3.52,-6.87 7.1,-13.83 10.73,-20.87 3.63,-7.04 7.19,-13.69 10.65,-19.94 3.47,-6.25 6.62,-11.53 9.46,-15.85 2.04,-3.07 3.97,-5.25 5.79,-6.56 1.82,-1.31 3.69,-1.96 5.62,-1.96l0.85 0c1.02,0 2.19,0.17 3.5,0.51 1.31,0.34 2.53,0.4 3.66,0.17 -1.48,1.59 -3.72,4.4 -6.73,8.44 -3.01,4.03 -6.36,8.75 -10.05,14.14 -3.69,5.4 -7.38,11.08 -11.08,17.04 -3.69,5.96 -6.96,11.79 -9.8,17.47 -2.73,5.45 -5.14,11.27 -7.24,17.47 -2.1,6.19 -3.15,11.62 -3.15,16.27 0,2.73 0.46,5 1.37,6.82 0.91,1.82 2.44,2.95 4.6,3.41 3.63,0.8 8.52,-2.44 14.66,-9.71 2.38,-2.84 4.77,-6.22 7.16,-10.14 2.38,-3.92 4.26,-7.58 5.62,-10.99 1.93,-4.55 2.9,-8.69 2.9,-12.44 0,-2.84 -0.71,-5.11 -2.13,-6.82 -1.42,-1.7 -3.78,-2.39 -7.07,-2.05l-0.68 0c-2.04,0 -3.07,-0.57 -3.07,-1.7 0,-0.46 0.31,-0.91 0.94,-1.36 0.63,-0.46 1.51,-0.68 2.65,-0.68 0.34,0 0.71,0.03 1.11,0.08 0.4,0.06 0.82,0.14 1.28,0.26 5.11,0.8 8.78,2.87 10.99,6.22 2.21,3.35 3.32,7.18 3.32,11.5 0,0.91 -0.06,1.9 -0.17,2.98 -0.11,1.08 -0.28,2.24 -0.51,3.49 -0.91,4.66 -2.67,9.4 -5.28,14.23 -2.61,4.83 -5.82,9.06 -9.63,12.69 -3.8,3.63 -8.04,6.08 -12.7,7.33 -1.93,0.46 -3.72,0.8 -5.37,1.02 -1.65,0.22 -3.15,0.34 -4.52,0.34zm55.04 -0.17c-4.32,0 -7.5,-1.45 -9.55,-4.35 -2.04,-2.9 -3.07,-6.45 -3.07,-10.65 0,-5.11 1.19,-10.45 3.58,-16.02 2.27,-5.23 5.17,-10 8.69,-14.31 3.52,-4.32 7.33,-7.81 11.42,-10.48 4.09,-2.67 8.07,-4 11.93,-4 4.32,0 7.49,1.42 9.54,4.26 2.05,2.84 3.07,6.42 3.07,10.73 0,5.23 -1.19,10.57 -3.58,16.02 -1.36,3.07 -3.29,6.45 -5.79,10.14 -2.5,3.69 -5.34,7.07 -8.52,10.14 0.68,1.25 1.65,2.3 2.9,3.15 1.25,0.85 2.95,1.28 5.11,1.28 2.73,0 5.31,-1.14 7.75,-3.41 2.44,-2.27 4.69,-5.03 6.73,-8.26 2.05,-3.24 3.86,-6.51 5.45,-9.8 1.59,-3.29 2.9,-5.96 3.92,-8.01 0.34,-0.68 0.91,-1.02 1.7,-1.02 0.46,0 0.8,0.2 1.02,0.59 0.23,0.4 0.17,0.99 -0.17,1.79 -0.68,1.7 -1.82,4.23 -3.41,7.58 -1.59,3.35 -3.52,6.82 -5.79,10.4 -2.27,3.58 -4.88,6.61 -7.84,9.11 -2.95,2.5 -6.25,3.75 -9.88,3.75 -2.5,0 -4.66,-0.43 -6.48,-1.28 -1.82,-0.85 -3.3,-1.9 -4.43,-3.16 -2.38,1.82 -4.77,3.24 -7.16,4.26 -2.38,1.02 -4.77,1.54 -7.15,1.54zm2.56 -3.75c3.07,0 6.36,-1.48 9.88,-4.43 -0.91,-1.36 -1.59,-2.78 -2.05,-4.26 -0.46,-1.48 -0.68,-2.84 -0.68,-4.09 0,-2.04 0.49,-3.8 1.45,-5.28 0.97,-1.47 2.47,-2.21 4.51,-2.21 1.48,0 2.7,0.54 3.66,1.62 0.97,1.08 1.45,2.3 1.45,3.66 0,0.34 -0.03,0.65 -0.08,0.94 -0.06,0.29 -0.14,0.6 -0.26,0.94 1.93,-2.61 3.75,-5.68 5.45,-9.2 3.75,-8.06 5.62,-14.71 5.62,-19.94 0,-2.61 -0.51,-4.66 -1.53,-6.13 -1.02,-1.48 -2.56,-2.22 -4.6,-2.22 -2.38,0 -4.97,1.02 -7.75,3.07 -2.78,2.04 -5.45,4.77 -8.01,8.18 -2.56,3.41 -4.8,7.21 -6.73,11.42 -1.82,3.86 -3.27,7.58 -4.35,11.16 -1.08,3.58 -1.62,6.67 -1.62,9.29 0,2.27 0.46,4.09 1.37,5.45 0.91,1.37 2.33,2.05 4.26,2.05zm66.63 3.92c-2.16,0 -4.32,-0.88 -6.48,-2.64 -2.16,-1.76 -3.24,-4.63 -3.24,-8.6 0,-3.07 0.74,-6.59 2.22,-10.57 1.37,-3.86 3.21,-7.61 5.54,-11.25 2.33,-3.63 4.01,-6.59 5.03,-8.86 0.34,-0.91 0.51,-1.7 0.51,-2.39 0,-2.04 -1.28,-3.52 -3.83,-4.43 -2.55,-0.91 -5.88,-1.42 -9.97,-1.54l-2.05 5.62c-1.25,3.63 -2.98,7.89 -5.2,12.78 -2.21,4.88 -4.66,9.6 -7.33,14.14 -2.67,4.54 -5.43,8.18 -8.27,10.9 -0.22,0.23 -0.51,0.34 -0.85,0.34 -0.45,0 -0.77,-0.28 -0.94,-0.85 -0.17,-0.57 0.09,-1.25 0.77,-2.05 4.43,-5.91 8.41,-12.47 11.93,-19.68 3.52,-7.21 6.5,-14.57 8.95,-22.07 2.44,-7.49 4.23,-14.43 5.37,-20.79 0.34,-1.82 0.97,-3.15 1.87,-4.01 0.91,-0.85 1.87,-1.28 2.9,-1.28 1.48,0 2.84,0.71 4.09,2.13 1.25,1.42 1.87,3.44 1.87,6.05 0,0.46 -0.03,0.97 -0.08,1.54 -0.06,0.57 -0.14,1.14 -0.26,1.7 -0.46,2.39 -1.79,4.63 -4,6.73 -2.22,2.1 -4.01,3.66 -5.37,4.69 1.14,0.11 2.33,0.2 3.58,0.25 1.25,0.06 2.61,0.09 4.09,0.09 5.34,0 10.62,-0.34 15.85,-1.02 0.23,0.68 0.34,1.19 0.34,1.54 0,1.48 -0.43,3.35 -1.28,5.62 -0.85,2.27 -1.73,4.32 -2.64,6.13 -0.46,1.02 -1.36,2.87 -2.73,5.54 -1.36,2.67 -2.84,5.68 -4.43,9.03 -1.59,3.35 -2.93,6.64 -4,9.88 -1.08,3.24 -1.62,5.99 -1.62,8.26 0,2.95 1.14,4.43 3.41,4.43 1.7,0 3.58,-1.11 5.62,-3.32 2.05,-2.21 4.06,-4.94 6.05,-8.18 1.99,-3.24 3.8,-6.42 5.45,-9.55 1.65,-3.12 2.93,-5.59 3.83,-7.41 0.46,-1.14 1.08,-1.7 1.87,-1.7 0.46,0 0.68,0.4 0.68,1.19 0,0.45 -0.17,1.14 -0.51,2.04 -1.25,2.61 -2.73,5.57 -4.43,8.86 -1.7,3.3 -3.61,6.53 -5.71,9.71 -2.1,3.18 -4.37,5.93 -6.81,8.26 -2.44,2.33 -5.08,3.83 -7.93,4.52 -0.34,0.11 -0.96,0.17 -1.87,0.17z"/>
  <path class="fil5 str1" d="M1449.57 549.06l-56.56 77.6c-141.72,125.02 -201.24,168.63 -345.38,168.63 -268.69,-60.01 -297.7,255.27 -202.2,578.57 42.93,145.33 144.32,294.59 234.95,433.81 5.71,8.77 -65.28,-184.5 -42.48,-417.56 10.01,-102.28 -93.46,-213.86 -105.46,-319.96 -19.03,-168.24 125.23,-196.59 270.21,-255.37 71.14,-28.84 139.94,-74.11 194.6,-129.13 29.52,-29.72 62,-59.03 77.81,-104.69 5.58,-16.11 -45.83,55.86 -52.1,41.69 -2.51,-5.67 14.77,-33.55 26.6,-73.59z"/>
  <path class="fil6" d="M760.61 320.7c-11.44,26.55 -17.63,88.37 19.49,201.78l61.41 145.15c-17.76,-16.3 -59.78,-61.59 -71.94,-81.74 -42.69,-70.73 -53.6,-162.73 -42.14,-230.04 6.86,-40.28 27.86,-72.38 44.31,-114.36 -43.07,60.4 -62.36,80.87 -89.46,153.76l-15.4 65.79c-9.3,135.75 71.15,261.72 176.43,298.97 67.38,23.85 146.77,9.54 207.41,-20.22 35.46,-17.41 -10.05,-6.28 -56.18,-13.36 -101.13,-15.52 -182.56,-164.23 -212.74,-270.97 -7.43,-26.27 -12.49,-55.55 -16.36,-80.39 -3.21,-20.6 -5.19,-45.76 -4.82,-54.38z"/>
  <path class="fil3" d="M1088.49 409.92c-51.51,0 -93.26,69.72 -93.26,155.71 0,86 41.75,155.72 93.26,155.72 51.51,0 93.26,-69.72 93.26,-155.72 0,-86 -41.75,-155.71 -93.26,-155.71z"/>
  <path class="fil3" d="M1492.65 471.63c12.21,0 22.11,16.19 22.11,36.17 0,19.98 -9.9,36.17 -22.11,36.17 -12.21,0 -22.12,-16.19 -22.12,-36.17 0,-19.98 9.9,-36.17 22.12,-36.17z"/>
 </g>
</svg>
